<!--
	@file apps/vscode-extension/media/cockpit-sidebar-concept.svg
	@description Illustrates the target Mission contributor cockpit sidebar with atmospheric instrumentation and a neutral instrument motif.
-->
<svg width="760" height="1440" viewBox="0 0 760 1440" fill="none" xmlns="http://www.w3.org/2000/svg">
	<defs>
		<linearGradient id="bg" x1="0" y1="0" x2="760" y2="1440" gradientUnits="userSpaceOnUse">
			<stop stop-color="#07111D" />
			<stop offset="0.55" stop-color="#0B1625" />
			<stop offset="1" stop-color="#0A0F18" />
		</linearGradient>
		<radialGradient id="aura" cx="0" cy="0" r="1" gradientUnits="userSpaceOnUse" gradientTransform="translate(380 164) rotate(90) scale(280 330)">
			<stop offset="0" stop-color="#35D5FF" stop-opacity="0.20" />
			<stop offset="0.38" stop-color="#C81BFF" stop-opacity="0.12" />
			<stop offset="1" stop-color="#0A1018" stop-opacity="0" />
		</radialGradient>
		<linearGradient id="rail" x1="160" y1="0" x2="620" y2="0" gradientUnits="userSpaceOnUse">
			<stop stop-color="#405167" stop-opacity="0.2" />
			<stop offset="0.5" stop-color="#62E6FF" stop-opacity="0.75" />
			<stop offset="1" stop-color="#405167" stop-opacity="0.2" />
		</linearGradient>
		<linearGradient id="action" x1="100" y1="0" x2="660" y2="0" gradientUnits="userSpaceOnUse">
			<stop stop-color="#5CE4FF" />
			<stop offset="1" stop-color="#8D8BFF" />
		</linearGradient>
	</defs>

	<rect width="760" height="1440" rx="44" fill="url(#bg)" />
	<rect x="20" y="20" width="720" height="1400" rx="34" stroke="#9EC8FF" stroke-opacity="0.09" stroke-width="2" />
	<circle cx="380" cy="166" r="330" fill="url(#aura)" />

	<g opacity="0.16" stroke="#5D748F" stroke-width="1">
		<path d="M70 72H690" />
		<path d="M70 118H690" />
		<path d="M70 164H690" />
		<path d="M70 210H690" />
		<path d="M70 256H690" />
		<path d="M70 302H690" />
		<path d="M70 348H690" />
		<path d="M118 44V368" />
		<path d="M204 44V368" />
		<path d="M290 44V368" />
		<path d="M376 44V368" />
		<path d="M462 44V368" />
		<path d="M548 44V368" />
		<path d="M634 44V368" />
	</g>

	<g transform="translate(80 58)">
		<circle cx="300" cy="74" r="70" fill="#0A1420" stroke="#4EDFFF" stroke-opacity="0.35" stroke-width="3" />
		<circle cx="300" cy="74" r="44" fill="#08111D" stroke="#7FAFFF" stroke-opacity="0.6" stroke-width="5" />
		<circle cx="300" cy="74" r="18" fill="#EAF8FF" />
		<circle cx="300" cy="74" r="8" fill="#07111D" />
		<path d="M300 24V42" stroke="#D8F5FF" stroke-width="4" stroke-linecap="round" />
		<path d="M300 106V124" stroke="#D8F5FF" stroke-width="4" stroke-linecap="round" />
		<path d="M250 74H268" stroke="#D8F5FF" stroke-width="4" stroke-linecap="round" />
		<path d="M332 74H350" stroke="#D8F5FF" stroke-width="4" stroke-linecap="round" />
		<path d="M300 42L318 74L300 106L282 74L300 42Z" fill="#FDB85A" />
		<path d="M240 142H360" stroke="#52E2FF" stroke-width="6" stroke-linecap="round" />
		<path d="M258 158H342" stroke="#8AAFFF" stroke-opacity="0.75" stroke-width="4" stroke-linecap="round" />
	</g>

	<text x="86" y="316" fill="#7E95AF" font-family="Arial, sans-serif" font-size="18" letter-spacing="2">MISSION PULSE</text>
	<text x="86" y="354" fill="#F5FAFF" font-family="Arial, sans-serif" font-size="40" font-weight="700">Mission 643</text>
	<text x="86" y="392" fill="#9FB2C8" font-family="Arial, sans-serif" font-size="24">Stage: Specification</text>
	<text x="430" y="392" fill="#9FB2C8" font-family="Arial, sans-serif" font-size="24">Current slice: Graph UX</text>

	<rect x="86" y="430" width="588" height="8" rx="4" fill="#172434" />
	<rect x="86" y="430" width="364" height="8" rx="4" fill="url(#rail)" />

	<g>
		<rect x="86" y="466" width="92" height="34" rx="17" fill="#102132" stroke="#55E2FF" stroke-opacity="0.35" />
		<text x="117" y="488" fill="#DFFAFF" font-family="Arial, sans-serif" font-size="16">PASS</text>
		<rect x="190" y="466" width="142" height="34" rx="17" fill="#1B1926" stroke="#FFB45C" stroke-opacity="0.35" />
		<text x="219" y="488" fill="#FFE4B8" font-family="Arial, sans-serif" font-size="16">2 stale docs</text>
		<rect x="344" y="466" width="198" height="34" rx="17" fill="#121B27" stroke="#98B8FF" stroke-opacity="0.28" />
		<text x="357" y="488" fill="#DCE7FF" font-family="Arial, sans-serif" font-size="16">runtime control-plane</text>
	</g>

	<rect x="62" y="540" width="636" height="214" rx="28" fill="#0B1624" stroke="url(#action)" stroke-opacity="0.55" stroke-width="2" />
	<rect x="82" y="562" width="126" height="30" rx="15" fill="#112638" />
	<text x="112" y="582" fill="#74E8FF" font-family="Arial, sans-serif" font-size="15" letter-spacing="1.6">NEXT ACTION</text>
	<text x="88" y="632" fill="#F6FBFF" font-family="Arial, sans-serif" font-size="34" font-weight="700">Draft Task Guidance</text>
	<text x="88" y="678" fill="#A4B9CF" font-family="Arial, sans-serif" font-size="22">Requirements and specification are stable.</text>
	<text x="88" y="710" fill="#A4B9CF" font-family="Arial, sans-serif" font-size="22">The safest next move is expanding TASKS.</text>
	<rect x="88" y="728" width="206" height="42" rx="21" fill="#10324A" stroke="#5CE4FF" />
	<text x="129" y="755" fill="#E5FBFF" font-family="Arial, sans-serif" font-size="18" font-weight="700">Open Guidance</text>
	<rect x="308" y="728" width="146" height="42" rx="21" fill="#121B27" stroke="#7E94B5" stroke-opacity="0.45" />
	<text x="350" y="755" fill="#D7E1EF" font-family="Arial, sans-serif" font-size="18">Show Why</text>

	<text x="86" y="822" fill="#7E95AF" font-family="Arial, sans-serif" font-size="18" letter-spacing="2">ARTIFACT CORRIDOR</text>
	<g>
		<rect x="62" y="850" width="636" height="152" rx="28" fill="#0A1320" stroke="#8FB5FF" stroke-opacity="0.14" />
		<path d="M122 926H638" stroke="#23354C" stroke-width="4" stroke-linecap="round" />
		<path d="M122 926H464" stroke="url(#rail)" stroke-width="4" stroke-linecap="round" />
		<g font-family="Arial, sans-serif" font-size="14" text-anchor="middle">
			<circle cx="122" cy="926" r="13" fill="#18C77A" />
			<text x="122" y="892" fill="#D9E4F2">INTAKE</text>
			<text x="122" y="960" fill="#9FC0A9">READY</text>
			<circle cx="224" cy="926" r="13" fill="#18C77A" />
			<text x="224" y="892" fill="#D9E4F2">PRD</text>
			<text x="224" y="960" fill="#9FC0A9">APPROVED</text>
			<circle cx="326" cy="926" r="13" fill="#18C77A" />
			<text x="326" y="892" fill="#D9E4F2">SPEC</text>
			<text x="326" y="960" fill="#9FC0A9">APPROVED</text>
			<circle cx="428" cy="926" r="13" fill="#59E6FF" />
			<text x="428" y="892" fill="#D9E4F2">TASKS</text>
			<text x="428" y="960" fill="#A7EFFF">NEXT</text>
			<circle cx="530" cy="926" r="13" fill="#56687B" />
			<text x="530" y="892" fill="#D9E4F2">VERIFY</text>
			<text x="530" y="960" fill="#8AA0B6">IDLE</text>
			<circle cx="632" cy="926" r="13" fill="#56687B" />
			<text x="632" y="892" fill="#D9E4F2">AUDIT</text>
			<text x="632" y="960" fill="#8AA0B6">IDLE</text>
		</g>
	</g>

	<text x="86" y="1068" fill="#7E95AF" font-family="Arial, sans-serif" font-size="18" letter-spacing="2">CURRENT SLICE</text>
	<rect x="62" y="1094" width="636" height="206" rx="28" fill="#0B1624" stroke="#8FB5FF" stroke-opacity="0.16" />
	<text x="88" y="1144" fill="#F6FBFF" font-family="Arial, sans-serif" font-size="30" font-weight="700">04. Mission Graph</text>
	<text x="88" y="1180" fill="#A4B9CF" font-family="Arial, sans-serif" font-size="20">Goal: make dependency state legible and actionable.</text>
	<g font-family="Arial, sans-serif" font-size="18" fill="#DDE7F3">
		<rect x="88" y="1210" width="20" height="20" rx="6" fill="#0B1624" stroke="#6EDFFF" />
		<text x="124" y="1226">surface stale links</text>
		<rect x="88" y="1244" width="20" height="20" rx="6" fill="#0B1624" stroke="#6EDFFF" />
		<text x="124" y="1260">wire graph selection to guidance</text>
		<rect x="88" y="1278" width="20" height="20" rx="6" fill="#0B1624" stroke="#6EDFFF" />
		<text x="124" y="1294">verify focus mode under stale updates</text>
	</g>
	<rect x="490" y="1234" width="174" height="42" rx="21" fill="#10324A" stroke="#5CE4FF" />
	<text x="531" y="1261" fill="#E5FBFF" font-family="Arial, sans-serif" font-size="18" font-weight="700">Open Guidance</text>

	<text x="86" y="1362" fill="#7E95AF" font-family="Arial, sans-serif" font-size="18" letter-spacing="2">PROMPT DOCK</text>
	<rect x="62" y="1388" width="636" height="18" rx="9" fill="#16202D" />
</svg>