<svg width="16" height="16" viewBox="0 0 16 16" fill="none" xmlns="http://www.w3.org/2000/svg">
  <path d="M9.64 1.25L10.03 2.58C10.21 2.66 10.38 2.76 10.55 2.87L11.86 2.49L13.02 4.5L12.01 5.43C12.03 5.62 12.04 5.81 12.04 6C12.04 6.19 12.03 6.38 12.01 6.57L13.02 7.5L11.86 9.51L10.55 9.13C10.38 9.24 10.21 9.34 10.03 9.42L9.64 10.75H7.32L6.93 9.42C6.75 9.34 6.58 9.24 6.41 9.13L5.1 9.51L3.94 7.5L4.95 6.57C4.93 6.38 4.92 6.19 4.92 6C4.92 5.81 4.93 5.62 4.95 5.43L3.94 4.5L5.1 2.49L6.41 2.87C6.58 2.76 6.75 2.66 6.93 2.58L7.32 1.25H9.64ZM8.48 4.56C7.69 4.56 7.04 5.21 7.04 6C7.04 6.79 7.69 7.44 8.48 7.44C9.27 7.44 9.92 6.79 9.92 6C9.92 5.21 9.27 4.56 8.48 4.56Z" fill="#424242"/>
</svg>
